<svg width="50" height="61" viewBox="0 0 50 61" fill="none" xmlns="http://www.w3.org/2000/svg">
<g filter="url(#filter0_d_829_8963)">
<path d="M4.03125 26.7998C4.03125 18.3998 5.80725 11.9678 9.35925 7.50384C12.9113 2.99184 17.9753 0.73584 24.5513 0.73584C28.1033 0.73584 31.1753 1.35984 33.7673 2.60784C36.3593 3.85584 38.4952 5.63184 40.1753 7.93584C41.9033 10.1918 43.1753 12.9278 43.9912 16.1438C44.8073 19.3118 45.2153 22.8638 45.2153 26.7998C45.2153 35.1998 43.4152 41.6558 39.8153 46.1678C36.2633 50.6318 31.1753 52.8638 24.5513 52.8638C21.0473 52.8638 17.9993 52.2398 15.4073 50.9918C12.8633 49.7438 10.7273 47.9918 8.99925 45.7358C7.31925 43.4318 6.07125 40.6958 5.25525 37.5278C4.43925 34.3118 4.03125 30.7358 4.03125 26.7998ZM10.3673 26.7998C10.3673 29.5838 10.6313 32.2238 11.1592 34.7198C11.7353 37.2158 12.5993 39.4238 13.7513 41.3438C14.9033 43.2158 16.3673 44.7278 18.1433 45.8798C19.9673 46.9838 22.1033 47.5358 24.5513 47.5358C29.0153 47.5358 32.5193 45.8558 35.0633 42.4958C37.6073 39.0878 38.8792 33.8558 38.8792 26.7998C38.8792 24.0638 38.5912 21.4478 38.0152 18.9518C37.4872 16.4078 36.6233 14.1998 35.4233 12.3278C34.2713 10.4078 32.7833 8.89584 30.9593 7.79184C29.1833 6.63984 27.0473 6.06384 24.5513 6.06384C20.1353 6.06384 16.6553 7.76784 14.1112 11.1758C11.6152 14.5358 10.3673 19.7438 10.3673 26.7998Z" fill="#FE5B00"/>
</g>
<defs>
<filter id="filter0_d_829_8963" x="0.03125" y="0.73584" width="49.1836" height="60.1279" filterUnits="userSpaceOnUse" color-interpolation-filters="sRGB">
<feFlood flood-opacity="0" result="BackgroundImageFix"/>
<feColorMatrix in="SourceAlpha" type="matrix" values="0 0 0 0 0 0 0 0 0 0 0 0 0 0 0 0 0 0 127 0" result="hardAlpha"/>
<feOffset dy="4"/>
<feGaussianBlur stdDeviation="2"/>
<feComposite in2="hardAlpha" operator="out"/>
<feColorMatrix type="matrix" values="0 0 0 0 0 0 0 0 0 0 0 0 0 0 0 0 0 0 0.25 0"/>
<feBlend mode="normal" in2="BackgroundImageFix" result="effect1_dropShadow_829_8963"/>
<feBlend mode="normal" in="SourceGraphic" in2="effect1_dropShadow_829_8963" result="shape"/>
</filter>
</defs>
</svg>
