<svg width="126" height="35" fill="none" xmlns="http://www.w3.org/2000/svg"><path d="M1.158 11.29 11.44 1.144a17.83 17.83 0 0 0-6.238 3.99 17.55 17.55 0 0 0-4.044 6.158ZM17.75 0a18.31 18.31 0 0 0-2.506.176L.18 15.046A17.253 17.253 0 0 0 0 17.518c0 .161.008.32.012.481L18.238.012C18.076.007 17.913 0 17.75 0ZM23.084.807a17.665 17.665 0 0 0-2.277-.542L.266 20.539a17.1 17.1 0 0 0 .549 2.247L23.085.806ZM26.972 2.548a17.698 17.698 0 0 0-1.848-.96L1.605 24.797c.288.626.612 1.235.974 1.823L26.971 2.548ZM30.15 4.99c-.479-.461-.984-.895-1.513-1.3L3.74 28.269c.41.522.85 1.02 1.317 1.494L30.151 4.99ZM32.69 8.063c-.366-.56-.763-1.1-1.19-1.618L6.525 31.095c.524.421 1.072.813 1.64 1.174L32.69 8.063ZM34.534 11.82a17.172 17.172 0 0 0-.825-1.974L9.977 33.269c.65.311 1.318.583 2 .814L34.535 11.82ZM35.462 16.48a17.185 17.185 0 0 0-.324-2.471L14.195 34.68a17.87 17.87 0 0 0 2.502.32l18.765-18.52ZM34.657 22.855c.372-1.147.622-2.329.747-3.527l-15.82 15.615a17.823 17.823 0 0 0 3.573-.738l11.5-11.35ZM52.093 24.585a7.209 7.209 0 0 1-2.749-.527 7.132 7.132 0 0 1-2.33-1.532 7.027 7.027 0 0 1-1.552-2.3 6.952 6.952 0 0 1-.534-2.713c0-3.948 3.162-7.128 7.165-7.128 4.002 0 7.165 3.178 7.165 7.128a6.953 6.953 0 0 1-.534 2.712 7.027 7.027 0 0 1-1.553 2.3 7.133 7.133 0 0 1-2.33 1.533 7.208 7.208 0 0 1-2.748.527Zm0-12.081c-2.872 0-4.845 2.261-4.845 4.981 0 2.748 1.973 4.981 4.845 4.981 2.871 0 4.844-2.233 4.844-4.98 0-2.72-1.973-4.982-4.844-4.982ZM68.625 24.213l-3.103-5.64h-.93v5.64h-2.319V10.756h2.552c2.61 0 5.425.66 5.425 3.894 0 1.89-1.218 3.006-2.466 3.464l3.626 6.099h-2.785Zm-3.8-11.338h-.233v3.693l.262-.027c1.77 0 2.988-.259 2.988-1.805-.029-1.66-1.16-1.86-3.017-1.86ZM82.346 24.213l-1.274-2.979h-5.484l-1.247 2.979h-2.552l6.15-13.457h.812l6.12 13.457h-2.525Zm-4.031-9.42h-.058l-1.914 4.638h3.945l-1.973-4.637ZM97.951 24.213l-8.586-9.133v9.133h-2.32V10.756h1.16l8.557 9.19v-9.19h2.322v13.457H97.95ZM109.087 24.585c-4.061 0-6.991-3.293-6.991-7.042 0-3.865 2.93-7.157 7.107-7.157 2.524 0 4.293 1.058 6.062 3.178l-1.739 1.517c-1.365-1.776-2.496-2.576-4.352-2.576-2.843 0-4.7 2.375-4.671 5.038 0 2.577 2.002 4.895 4.584 4.895 2.055 0 3.829-1.43 4.089-3.263h-4v-2.12h6.555c.001 4.295-2.202 7.53-6.644 7.53ZM118.777 24.213V10.756H126v2.12h-4.901v3.094H126v2.119h-4.901v4.008H126v2.119l-7.223-.003Z" fill="#F5702C"/></svg>